<svg class="category-img" width="64px" height="64px" version="1.1" id="Capa_1" xmlns="http://www.w3.org/2000/svg" xmlns:xlink="http://www.w3.org/1999/xlink" x="0px" y="0px"
	 viewBox="0 0 487.666 487.666" style="enable-background:new 0 0 487.666 487.666;" xml:space="preserve">
<path d="M364.166,471.675v-24.009c0-4.418-3.582-8-8-8h-23.5V375c0-4.418-3.582-8-8-8h-17V199.666c0-4.306-3.404-7.807-7.667-7.983
	v-40.35c0-4.418-3.582-8-8-8h-0.125v-24c0-4.418-3.582-8-8-8H268V56c0-4.418-3.582-8-8-8h-8V8c0-4.418-3.582-8-8-8s-8,3.582-8,8v40
	h-8c-4.418,0-8,3.582-8,8v55.333h-15.875c-4.418,0-8,3.582-8,8v24H196c-4.418,0-8,3.582-8,8v40.333c-4.418,0-8,3.582-8,8V367h-17
	c-4.418,0-8,3.582-8,8v64.667h-23.5c-4.418,0-8,3.582-8,8v24.009c-4.341,0.089-7.833,3.629-7.833,7.991c0,4.418,3.582,8,8,8H364
	c4.418,0,8-3.582,8-8C372,475.304,368.507,471.764,364.166,471.675z M316.666,439.666H276V383h40.667V439.666z M227.666,439.666V360
	H260v79.667H227.666z M276,159.333h8v32.333h-8V159.333z M260,344h-32.333V175.333H260V344z M276,367V207.666h15.667V367H276z
	 M236,64h16v47.333h-16V64z M212.125,127.333h63.75v16H268c-4.418,0-8,3.582-8,8v8h-32.333v-8c0-4.418-3.582-8-8-8h-7.542V127.333z
	 M204,159.333h7.667v32.333H204V159.333z M196,207.666h15.667V367H196V207.666z M171,383h40.667v56.667H171V383z M348.166,455.666
	v16H139.5v-16H348.166z"/>
</svg>
