<?xml version="1.0" encoding="utf-8"?>
<!-- Svg Vector Icons : http://www.onlinewebfonts.com/icon -->
<!DOCTYPE svg PUBLIC "-//W3C//DTD SVG 1.1//EN" "http://www.w3.org/Graphics/SVG/1.1/DTD/svg11.dtd">
<svg version="1.1" xmlns="http://www.w3.org/2000/svg" xmlns:xlink="http://www.w3.org/1999/xlink" x="0px" y="0px" viewBox="0 0 1000 1000" enable-background="new 0 0 1000 1000" xml:space="preserve">
<metadata> Svg Vector Icons : http://www.onlinewebfonts.com/icon </metadata>
<g><path d="M113.9,981C113.9,981,113.9,981,113.9,981c-22.4,0-45.5-6.8-61.6-18.3c-14.4-10.2-23.4-28-25.4-50.3c-2.5-26.9,5.4-54.1,20.1-69.2c18.4-19,277.9-259.7,337.2-314.7l-27.3-29.3c-10.9,1.2-31.4,3-52.4,3c-18.5,0-33.7-1.4-45.3-4.2c-7.7-1.9-21-8-55.5-39.2c-21.9-19.8-48.5-46.3-74.8-74.6c-23.2-25-99.7-109.4-110.3-146.5c-14-49.1-6.9-106-5.6-115.1C13.3,98.2,24.4,54,64.4,54c25.4,0,56.7,19.2,95.8,58.7c22.1,22.3,270.3,268.9,326.6,324.9l33.9-35c-14.8-13.4-36.6-36.3-41.4-59.1c-6.5-31,0.6-45.3,14.6-73.8c1.3-2.7,2.8-5.6,4.3-8.7c24-49.3,201.3-208.3,231.8-231.7c9-6.9,18.6-10.5,28.4-10.5c16.5,0,32,10.4,40.3,27.1c6.9,13.9,6.7,28.5-0.6,38.1c-10.8,14.2-167.9,175.7-188.4,196.8c-5.1,6.5-16.1,24.7-9.5,31.3c0.6,0.6,1.3,1.1,3.1,1.1c8.4,0,21.6-9.5,26.6-14c9.7-9.6,170.7-168.9,185.1-182.6c8.2-7.8,17.9-11.9,28.1-11.9c19.3,0,34.4,14.4,40.9,28.7c6.4,14.1,5.1,28.5-3.5,38.4C867,187.5,704.6,365.5,697.7,373l-0.5,0.5c-2.2,2.3-11.8,13.1-4.4,22.6c1,1.3,1.8,1.7,3.4,1.7c7,0,18.4-7.5,23.2-11.7c8.2-8.1,170.9-168.5,189.2-186.7c6.6-6.5,15.3-10,25.3-10c20.5,0,44.1,14.9,52.7,33.2c5.4,11.5,4.2,23.1-3.2,32c-0.8,0.9-1.9,2.3-3.5,4.2c-45.4,55.2-87.6,103.3-125.2,142.9C753.6,508.2,716,520.5,696.6,520.5c-2.5,0-4.9-0.2-7.2-0.7c-32.3-6.3-60.8-25.3-76.4-37.4L575.4,526c56,54.6,315.8,307.9,327.6,319.4c10.8,10.6,21.1,35.1,19.7,61.4c-1.2,22.4-10.6,41.1-27.3,54.2c-15.3,12-35.4,18.6-56.7,18.6c-23.5,0-44.7-8.1-55.3-21c-10.5-12.8-192.2-216.4-296.4-333L171.7,959.5C158.6,973.4,138.1,981,113.9,981L113.9,981z M369.1,466l59.7,64.2l-11.6,10.7c-3.3,3-327.9,303.9-347.6,324.2c-8,8.3-12.9,27.3-11.3,44.4c1.2,12.8,5.7,22.8,12.3,27.5c10.9,7.7,27.5,12.5,43.4,12.5c0,0,0,0,0,0c15.2,0,27.9-4.3,34.9-11.7l338.9-358.8l11.4,12.8c12,13.5,294.7,329.7,308.7,346.9c3.7,4.6,15.8,9.5,30.8,9.5c14.3,0,27.5-4.2,37.3-11.9c9.4-7.4,14.6-17.9,15.3-31.1c0.9-17.2-6.1-33.1-10.2-37.2c-13.2-12.9-338.2-329.7-338.2-329.7L532.3,528l77.7-90.6l12,11.4c0.3,0.3,34.7,32.5,73.4,40c0.2,0,0.6,0.1,1.1,0.1c24.6,0,107.2-65.5,259.1-250.1c1-1.2,1.8-2.2,2.4-3c-2.3-5.2-14.5-14.9-24.2-14.9c-1.5,0-2.6,0.3-3.1,0.8c-18.7,18.5-187.9,185.4-189.6,187.1l-0.6,0.5c-2.3,2-22.9,19.9-44.4,19.9c-11.4,0-21.2-4.8-28.2-13.8c-19.9-25.3-4.5-52.8,6.7-64c7.2-7.9,166.9-183,181.9-200c0.1-1.1-0.4-4.7-3.5-8.8c-2.9-3.9-6.8-6.4-9.9-6.4c-2,0-4.1,1.1-6.4,3.3C822.4,153.2,653.5,320.3,651.8,322l-0.4,0.4c-2.5,2.3-25.1,22.5-48.1,22.5c-9.8,0-18.6-3.6-25.4-10.3c-23.1-23.1-6-57.4,7.8-74.1l0.9-1c66.4-68.2,173.5-179,185.7-193.5c-0.1-1.9-1.2-6.3-4.6-10.3c-1.6-2-5-5.2-9.2-5.2c-2.7,0-5.8,1.3-9.3,3.9c-14.4,11.1-65.5,56-115.7,104c-84.7,80.9-103,108.4-106.9,116.5c-1.5,3.1-3,6.1-4.3,8.8c-13.2,26.7-16.3,33.1-12.1,53.5c3.4,16.3,28.3,40.4,43.1,51.8l14.1,10.8l-80.2,82.7l-11.3-11.2c-3.1-3.1-313.3-311.2-338.1-336.3C95.3,91.9,73.5,85.5,64.3,85.5c-3.2,0-10.7,0-16.1,15.7c-3.7,10.9-3.9,22.5-3.9,22.6l0,1.1l-0.2,1.2c-0.1,0.6-8.4,57.2,4.6,102.9c5.5,19.2,47.6,73.8,102.5,133c62.5,67.4,105.8,102.7,115.3,105.4c9.1,2.2,21.9,3.3,37.9,3.3c28.3,0,56.2-3.6,56.5-3.6L369.1,466L369.1,466z"/></g>
</svg>