<?xml version="1.0" encoding="UTF-8" standalone="no"?><!DOCTYPE svg PUBLIC "-//W3C//DTD SVG 1.1//EN" "http://www.w3.org/Graphics/SVG/1.1/DTD/svg11.dtd"><svg width="100%" height="100%" viewBox="0 0 4 7" version="1.1" xmlns="http://www.w3.org/2000/svg" xmlns:xlink="http://www.w3.org/1999/xlink" xml:space="preserve" xmlns:serif="http://www.serif.com/" style="fill-rule:evenodd;clip-rule:evenodd;stroke-linejoin:round;stroke-miterlimit:1.41421;"><path d="M1.416,0.153c-0.027,0 -0.05,0.022 -0.05,0.049l0,1.574c0,0.001 0,0.001 0,0.002l-0.584,0l0,-1.576c0,-0.027 -0.022,-0.049 -0.05,-0.049c-0.027,0 -0.049,0.022 -0.049,0.049l0,1.576l-0.585,0c0,-0.001 0,-0.001 0,-0.002l0,-1.574c0,-0.027 -0.022,-0.049 -0.049,-0.049c-0.027,0 -0.049,0.022 -0.049,0.049l0,1.574c0,0.014 0,0.027 0.001,0.04c-0.001,0.004 -0.001,0.007 -0.001,0.011c0,0.006 0.001,0.012 0.003,0.017c0.033,0.356 0.322,0.639 0.68,0.663l0,1.295l-0.342,0c-0.026,0 -0.046,0.02 -0.049,0.045c-0.006,0.008 -0.01,0.018 -0.01,0.03l0,2.443c0,0.249 0.202,0.451 0.45,0.451c0.249,0 0.451,-0.202 0.451,-0.451l0,-2.443c0,-0.012 -0.004,-0.022 -0.01,-0.03c-0.003,-0.025 -0.023,-0.045 -0.049,-0.045l-0.342,0l0,-1.295c0.358,-0.024 0.647,-0.307 0.68,-0.663c0.002,-0.005 0.003,-0.011 0.003,-0.017c0,-0.004 -0.001,-0.007 -0.001,-0.011c0,-0.013 0.001,-0.026 0.001,-0.04l0,-1.574c0,-0.027 -0.022,-0.049 -0.049,-0.049Zm-0.684,6.519c-0.194,0 -0.352,-0.158 -0.352,-0.352l0,-2.419l0.705,0l0,2.419c0,0.194 -0.158,0.352 -0.353,0.352Zm0,-4.262c-0.315,0 -0.578,-0.232 -0.626,-0.534l1.253,0c-0.049,0.302 -0.311,0.534 -0.627,0.534Z" style="fill-rule:nonzero;"/><path d="M3.682,0.049c0,-0.013 -0.006,-0.026 -0.016,-0.035c-0.009,-0.01 -0.023,-0.015 -0.036,-0.014c-0.013,0.001 -0.329,0.022 -0.639,0.528c-0.402,0.658 -0.607,1.794 -0.607,3.377c0,0.027 0.022,0.049 0.049,0.05c0.213,0.004 0.398,0.005 0.555,0.006l0,2.359c0,0.249 0.156,0.451 0.347,0.451c0.191,0 0.347,-0.202 0.347,-0.451l0,-2.443c0,-0.003 -0.001,-0.006 -0.001,-0.009c0,-0.002 0.001,-0.005 0.001,-0.007l0,-3.812l0,0Zm-0.617,0.547c0.211,-0.353 0.423,-0.456 0.518,-0.486l0,3.748c-0.125,0.003 -0.495,0.01 -1.1,-0.001c0.005,-1.899 0.319,-2.821 0.582,-3.261Zm0.27,6.076c-0.135,0 -0.248,-0.161 -0.248,-0.352l0,-2.359c0.003,0 0.006,0 0.009,0c0.247,0 0.41,-0.003 0.487,-0.005l0,2.364c0,0.191 -0.114,0.352 -0.248,0.352Z" style="fill-rule:nonzero;"/></svg>