<svg viewBox="0 -26 512 511" width="64px" height="64px" xmlns="http://www.w3.org/2000/svg">
	<path d="m316.820312 66.457031h.128907c9.617187 0 17.441406 7.820313 17.441406 17.4375 0 17.851563 14.523437 32.375 32.375 32.375h85.882813c17.851562 0 32.371093-14.523437 32.371093-32.375v-1.207031c0-17.851562-14.519531-32.375-32.371093-32.375h-.132813c-9.617187 0-17.441406-7.820312-17.441406-17.4375 0-17.851562-14.523438-32.375-32.375-32.375h-22.070313c-4.125 0-7.46875 3.34375-7.46875 7.464844 0 4.125 3.34375 7.46875 7.46875 7.46875h22.070313c9.617187 0 17.441406 7.824218 17.441406 17.441406 0 17.847656 14.523437 32.371094 32.375 32.371094h.132813c9.613281 0 17.4375 7.824218 17.4375 17.441406v1.207031c0 9.617188-7.820313 17.441407-17.4375 17.441407h-85.882813c-9.617187 0-17.441406-7.824219-17.441406-17.441407 0-17.847656-14.523438-32.371093-32.375-32.371093h-.128907c-9.617187 0-17.441406-7.824219-17.441406-17.441407v-1.207031c0-9.617188 7.824219-17.441406 17.441406-17.441406h33.246094c4.125 0 7.46875-3.34375 7.46875-7.46875 0-4.121094-3.34375-7.464844-7.46875-7.464844h-33.246094c-17.851562 0-32.375 14.523438-32.375 32.375v1.207031c0 17.851563 14.523438 32.375 32.375 32.375zm0 0"/><path d="m504.535156 444.503906h-27.582031v-54.324218c0-4.121094-3.34375-7.464844-7.46875-7.464844h-6.878906l3.753906-17.167969c.480469-2.210937-.0625-4.519531-1.480469-6.277344-1.414062-1.761719-3.554687-2.785156-5.816406-2.785156h-10.722656v-11.773437h11.707031c4.125 0 7.46875-3.34375 7.46875-7.46875v-21.367188c0-4.125-3.34375-7.46875-7.46875-7.46875h-138.601563c-4.125 0-7.46875 3.34375-7.46875 7.46875v21.367188c0 4.125 3.34375 7.46875 7.46875 7.46875h11.699219v11.773437h-10.714843c-2.261719 0-4.398438 1.023437-5.816407 2.785156-1.417969 1.757813-1.960937 4.066407-1.476562 6.277344l3.753906 17.164063h-19.21875l12.78125-105.210938c.003906-.03125.007813-.0625.011719-.09375l4.058594-33.398438c.257812-2.121093-.40625-4.25-1.824219-5.851562-1.417969-1.597656-3.453125-2.515625-5.589844-2.515625h-17.550781v-51.945313c0-4.125-3.34375-7.46875-7.46875-7.46875h-46.203125c-4.125 0-7.464844 3.34375-7.464844 7.46875v51.945313h-5.242187c-2.703126-13.191406-9.496094-25.238281-19.570313-34.445313-11.847656-10.832031-27.214844-16.792968-43.277344-16.792968h-40.707031c-16.0625 0-31.429688 5.960937-43.277344 16.792968-10.074218 9.207032-16.867187 21.253907-19.570312 34.445313h-19.8125c-2.136719 0-4.171875.917969-5.589844 2.515625-1.417969 1.601562-2.082031 3.730469-1.824219 5.855469l3.894531 32.039062c-.085937 1.046875.046876 2.058594.363282 2.996094l12.597656 103.667969h-5.890625c-4.125 0-7.46875 3.34375-7.46875 7.464844v54.324218h-27.582031c-4.121094 0-7.464844 3.34375-7.464844 7.464844 0 4.125 3.34375 7.46875 7.464844 7.46875h497.070312c4.121094 0 7.464844-3.34375 7.464844-7.46875 0-4.121094-3.34375-7.464844-7.464844-7.464844zm-175.625-121.160156h123.671875v6.433594h-11.628906c-.027344 0-.050781-.003906-.078125-.003906h-100.261719c-.027343 0-.050781.003906-.078125.003906h-11.621094v-6.433594zm19.167969 21.367188h85.328125v11.773437h-85.328125zm-16.371094 26.707031h118.082031l-2.46875 11.296875h-113.144531zm-274.941406-43.691407c39.378906 3.800782 78.820313 5.726563 118.109375 5.726563 39.046875 0 77.933594-1.902344 116.425781-5.65625l-3.339843 27.480469c-75.011719 7.199218-151.609376 7.179687-227.855469-.066406zm188.589844-136.566406h31.269531v44.480469h-31.269531zm-123.730469 8.171875h40.710938c22.683593 0 41.84375 15.128907 47.519531 36.308594h-135.75c5.671875-21.179687 24.832031-36.308594 47.519531-36.308594zm-56.390625 51.242188h.011719 153.507812.011719.007813 81.90625l-2.347657 19.34375c-38.09375 3.996093-76.792969 6.179687-115.140625 6.445312-4.125.03125-7.445312 3.398438-7.414062 7.519531.027344 4.109376 3.367187 7.414063 7.464844 7.414063h.054687c37.691406-.261719 75.714844-2.351563 113.1875-6.171875l-3.339844 27.484375c-78.390625 7.875-158.46875 7.851563-238.222656-.066406l-3.335937-27.476563c33.777343 3.402344 67.789062 5.449219 101.246093 6.058594.046875.003906.09375.003906.140625.003906 4.058594 0 7.386719-3.257812 7.460938-7.332031.074218-4.125-3.207032-7.527344-7.328125-7.601563-34.15625-.621093-68.898438-2.761718-103.367188-6.332031l-2.34375-19.289062zm-3.285156 119.804687c37.636719 3.472656 75.347656 5.234375 112.917969 5.234375 37.304687 0 74.460937-1.734375 111.25-5.164062l-1.488282 12.261719h-221.179687zm-11.96875 74.125v-46.855468h6.921875.097656 234.171875c.023437 0 .054687.003906.078125.003906.035156 0 .070312-.003906.105469-.003906h36.742187c.019532 0 .039063.003906.0625.003906.03125 0 .066406-.003906.101563-.003906h124.894531.230469 8.632812v46.855468zm0 0"/></svg>