<svg width="64px" height="64px" version="1.1" id="Layer_1" xmlns="http://www.w3.org/2000/svg" xmlns:xlink="http://www.w3.org/1999/xlink" x="0px" y="0px"
	 viewBox="0 0 512 512" style="enable-background:new 0 0 512 512;" xml:space="preserve">
<g>
	<g>
		<path d="M479.411,311.481h-83.804v-39.495c9.744-2.875,16.879-11.898,16.879-22.563c0-12.972-10.553-23.524-23.524-23.524h-94.583
			c3.65-58.637,41.88-110.481,97.477-130.801c5.291-1.934,8.011-7.79,6.079-13.08c-1.934-5.291-7.789-8.011-13.081-6.079
			c-32.293,11.803-59.934,32.908-79.932,61.033c-18.67,26.257-29.298,56.83-31.006,88.927h-7.716v-119.17
			c0-5.632-4.567-10.199-10.199-10.199s-10.199,4.567-10.199,10.199v119.17h-7.718c-2.22-41.827-19.539-80.817-49.345-110.623
			C156.757,83.294,114.201,65.68,68.912,65.68c-5.632,0-10.199,4.567-10.199,10.199c0,5.632,4.567,10.199,10.199,10.199
			c79.081,0,143.96,61.918,148.731,139.82h-94.604c-12.972,0-23.524,10.553-23.524,23.524c0,10.664,7.134,19.688,16.879,22.563
			v39.495H32.59C14.62,311.48,0,326.1,0,344.071c0,16.537,12.383,30.225,28.362,32.306v87.608c0,5.632,4.567,10.199,10.199,10.199
			H473.44c5.632,0,10.199-4.567,10.199-10.199v-87.608c15.978-2.081,28.361-15.77,28.361-32.306
			C512,326.101,497.38,311.481,479.411,311.481z M123.04,246.296h265.921c1.724,0,3.126,1.402,3.126,3.126
			c0,1.724-1.402,3.126-3.126,3.126H123.04c-1.724,0-3.126-1.402-3.126-3.126C119.914,247.699,121.316,246.296,123.04,246.296z
			 M375.208,272.947v37.642H136.792v-37.642H375.208z M463.241,453.786h-0.001h-43.291v-37.568c0-5.632-4.567-10.199-10.199-10.199
			c-5.632,0-10.199,4.567-10.199,10.199v37.568h-41.102v-37.568c0-5.632-4.567-10.199-10.199-10.199
			c-5.632,0-10.199,4.567-10.199,10.199v37.568h-41.102v-37.568c0-5.632-4.567-10.199-10.199-10.199
			c-5.632,0-10.199,4.567-10.199,10.199v37.568h-41.102v-37.568c0-5.632-4.567-10.199-10.199-10.199
			c-5.632,0-10.199,4.567-10.199,10.199v37.568h-41.102v-37.568c0-5.632-4.567-10.199-10.199-10.199s-10.199,4.567-10.199,10.199
			v37.568h-41.102v-37.568c0-5.632-4.567-10.199-10.199-10.199s-10.199,4.567-10.199,10.199v37.568H48.76v-77.125h414.48V453.786z
			 M479.411,356.262H32.59c-6.722,0-12.191-5.469-12.191-12.191c0-6.723,5.469-12.192,12.191-12.192h446.821
			c6.722,0,12.191,5.469,12.191,12.192C491.602,350.793,486.133,356.262,479.411,356.262z"/>
	</g>
</g>
<g>
	<g>
		<path d="M443.087,65.68c-7.068,0-14.187,0.44-21.162,1.307c-5.589,0.696-9.558,5.79-8.862,11.38
			c0.643,5.162,5.037,8.942,10.108,8.942c0.419,0,0.844-0.026,1.272-0.079c6.142-0.764,12.415-1.151,18.644-1.151
			c5.632,0,10.199-4.567,10.199-10.199C453.286,70.247,448.719,65.68,443.087,65.68z"/>
	</g>
</g>
<g>
	<g>
		<path d="M256,37.816c-5.632,0-10.199,4.567-10.199,10.199v22.888c0,5.633,4.567,10.2,10.199,10.2s10.199-4.567,10.199-10.199
			V48.015C266.199,42.383,261.632,37.816,256,37.816z"/>
	</g>
</g>
<g>
</g>
<g>
</g>
<g>
</g>
<g>
</g>
<g>
</g>
<g>
</g>
<g>
</g>
<g>
</g>
<g>
</g>
<g>
</g>
<g>
</g>
<g>
</g>
<g>
</g>
<g>
</g>
<g>
</g>
</svg>
