<?xml version="1.0" encoding="UTF-8" standalone="no"?><!DOCTYPE svg PUBLIC "-//W3C//DTD SVG 1.1//EN" "http://www.w3.org/Graphics/SVG/1.1/DTD/svg11.dtd">

<svg width="64px" height="64px" viewBox="0 0 550 257" version="1.1" xmlns="http://www.w3.org/2000/svg" xmlns:xlink="http://www.w3.org/1999/xlink" xml:space="preserve" xmlns:serif="http://www.serif.com/" style="fill-rule:evenodd;clip-rule:evenodd;stroke-linejoin:round;stroke-miterlimit:1.41421;">
	<path d="M517.856,161.731l-4.853,-31.731l-69.712,-44.422l-10.079,10.081l13.625,136.438l6.813,6.812l54.406,0l25.013,0.935l-12.038,-58.047l-37.89,-16.147l6.531,24.638l7.375,3.546l2.612,21.372l-17.171,0l-11.666,-84.553l17.544,7.466l2.893,15.494l26.597,8.118Zm-108.628,-56.74l-57.956,-41.716l-18.756,0l-4.294,8.678l-0.653,62.247l56.087,59.634l1.588,11.013l-4.2,11.944l-12.6,-2.519l-1.96,-31.822l-44.7,-12.6l-6.162,69.059l107.231,0l-2.241,-58.047l-52.168,-47.593l0,-27.253l13.625,0l3.175,28.184l28.278,19.413l-4.294,-48.622Zm-177.222,38.262l15.863,-83.9l-66.725,-45.728l-65.141,225.284l61.594,0l33.969,-129.628l-6.81,129.628l23.981,0l34.066,-109.281l-10.359,109.281l44.422,0l13.531,-160.143l-46.663,-23.332l-31.728,87.819Zm-78.393,-132.8l27.531,-10.453l76.431,53.194l3.641,-7.744l42.368,19.409l27.625,-10.359l26.879,0l47.965,34.344l22.96,-1.585l13.625,-12.04l14.559,3.547l61.312,44.05l30.704,133.265l-549.213,0l75.222,-180.862l67.378,-57.019l-70.647,217.444l9.988,0l71.672,-225.191Z" fill="#ff3a6d"/>
</svg>