<?xml version="1.0" encoding="utf-8"?>
<!-- Svg Vector Icons : http://www.onlinewebfonts.com/icon -->
<!DOCTYPE svg PUBLIC "-//W3C//DTD SVG 1.1//EN" "http://www.w3.org/Graphics/SVG/1.1/DTD/svg11.dtd">
<svg version="1.1" xmlns="http://www.w3.org/2000/svg" xmlns:xlink="http://www.w3.org/1999/xlink" x="0px" y="0px" viewBox="0 0 1000 1000" enable-background="new 0 0 1000 1000" xml:space="preserve">
<metadata> Svg Vector Icons : http://www.onlinewebfonts.com/icon </metadata>
<g><path d="M748.4,10h-497C118.3,10,10,120.6,10,256.3v487.4C10,879.4,118.3,990,251.4,990h497C881.7,990,990,879.4,990,743.7V256.3C990,120.6,881.7,10,748.4,10z M322.8,489v1.5c0,23.8-19.9,44.6-43.5,44.6h-50.9c-23.6,0-43.4-20.8-43.4-44.6V489V267.1v-3c2.2-23.6,20.1-44.1,43.4-44.1h50.9c23.8,0,43.5,21.5,43.5,45.6V489z M589.7,805.7v5.9c0,25-19.4,38.5-44,38.5H500h-45.7c-24.6,0-44-17.8-44-42.8v-1.5V743c0-51,39.6-92.5,89.7-92.5c50.1,0,89.7,41.5,89.7,92.5V805.7z M815,489v1.5c0,23.8-19.8,44.6-43.4,44.6h-53.1c-23.6,0-43.5-20.8-43.5-44.6V489V267.1v-3c2.2-23.6,20.2-44.1,43.5-44.1h53.1c23.6,0,43.4,21.5,43.4,45.6V489z"/></g>
</svg>