<?xml version="1.0" encoding="utf-8"?>
<!-- Generator: Adobe Illustrator 12.0.1, SVG Export Plug-In . SVG Version: 6.00 Build 51448)  -->
<!DOCTYPE svg PUBLIC "-//W3C//DTD SVG 1.1//EN" "http://www.w3.org/Graphics/SVG/1.1/DTD/svg11.dtd" [
	<!ENTITY ns_svg "http://www.w3.org/2000/svg">
	<!ENTITY ns_xlink "http://www.w3.org/1999/xlink">
]>
<svg  version="1.1" id="Layer_1" xmlns="&ns_svg;" xmlns:xlink="&ns_xlink;" width="106.445" height="106.628"
	 viewBox="0 0 106.445 106.628" overflow="visible" enable-background="new 0 0 106.445 106.628" xml:space="preserve">
<g>
	<path fill="#FFFFFF" d="M50.646,50.011"/>
</g>
<g>
	<g>
		<circle cx="29.978" cy="19.579" r="6.455"/>
		<path d="M45.226,37.851v-3.26c0-3.43-2.779-6.211-6.211-6.211H20.921c-3.43,0-6.211,2.781-6.211,6.211v3.26
			c-0.006,0.074-0.01,0.15-0.01,0.227v18.777c0,1.459,1.182,2.641,2.641,2.641c1.457,0,2.642-1.182,2.642-2.641V38.356h1.771v21.142
			h0.013v29.873c0,1.942,1.577,3.52,3.521,3.52c1.945,0,3.521-1.576,3.521-3.52V59.498h2.323v29.873c0,1.942,1.578,3.52,3.521,3.52
			c1.945,0,3.521-1.576,3.521-3.52V59.498h0.011V38.356h1.771v18.498c0,1.459,1.185,2.642,2.642,2.642
			c1.459,0,2.641-1.183,2.641-2.642V38.077C45.238,37.999,45.232,37.925,45.226,37.851z"/>
	</g>
	<g>
		<path d="M76.288,25.618c3.562,0,6.453-2.889,6.453-6.453c0-3.566-2.891-6.457-6.453-6.457c-3.565,0-6.457,2.891-6.457,6.457
			C69.831,22.729,72.722,25.618,76.288,25.618z"/>
		<path d="M94.386,53.448L88.595,31.97c-0.054-0.195-0.13-0.381-0.222-0.553c-0.658-2.012-2.547-3.469-4.778-3.469H68.938
			c-2.326,0-4.279,1.582-4.854,3.729c-0.039,0.094-0.071,0.193-0.1,0.295l-5.688,21.477c-0.379,1.408,0.457,2.855,1.867,3.234
			c1.408,0.377,2.855-0.459,3.234-1.867l4.467-16.871h1.861L61.618,68.47h7.639v21.074c0,1.621,1.312,2.934,2.935,2.934
			c1.619,0,2.934-1.312,2.934-2.934V68.47h2.334v21.074c0,1.621,1.314,2.934,2.937,2.934c1.619,0,2.934-1.312,2.934-2.934V68.47
			h7.635l-8.137-30.525h1.91l4.549,16.871c0.379,1.408,1.826,2.244,3.234,1.867C93.927,56.304,94.763,54.856,94.386,53.448z"/>
	</g>
	<g>
		<rect x="50.384" y="12.845" width="4.555" height="79.625"/>
		<path d="M52.662,54.042"/>
	</g>
</g>
</svg>
